<svg width="1424" height="900" viewBox="0 0 1424 900" fill="none" xmlns="http://www.w3.org/2000/svg">
<g clip-path="url(#clip0_5591_90995)">
<mask id="mask0_5591_90995" style="mask-type:luminance" maskUnits="userSpaceOnUse" x="0" y="0" width="500" height="900">
<path d="M500 0H0V900H500V0Z" fill="white"/>
</mask>
<g mask="url(#mask0_5591_90995)">
<mask id="mask1_5591_90995" style="mask-type:alpha" maskUnits="userSpaceOnUse" x="-667" y="119" width="1152" height="755">
<path d="M193.337 870.65L474.957 827.674C482.238 826.563 486.68 819.076 484.16 812.163L288.073 274.215C249.689 168.914 142.195 105.393 31.1625 122.352L-465.832 198.213C-613.43 220.786 -703.508 372.518 -652.482 512.545C-613.873 618.364 -505.895 682.289 -394.328 665.284L-108.934 621.701C-103.436 620.862 -98.1097 624.013 -96.2062 629.233L-63.5809 718.699C-25.1969 824 82.3049 887.61 193.337 870.65Z" fill="url(#paint0_linear_5591_90995)"/>
</mask>
<g mask="url(#mask1_5591_90995)">
<mask id="mask2_5591_90995" style="mask-type:luminance" maskUnits="userSpaceOnUse" x="0" y="0" width="1428" height="900">
<path d="M0 0H1428V900H0V0Z" fill="white"/>
</mask>
<g mask="url(#mask2_5591_90995)">
<path d="M191.915 868.789L472.133 826.026C479.377 824.921 483.797 817.471 481.29 810.593L286.178 275.321C247.985 170.544 141.027 107.339 30.5471 124.214L-463.973 199.697C-610.837 222.158 -700.466 373.135 -649.694 512.465C-611.277 617.758 -503.837 681.365 -392.826 664.444L-108.852 621.078C-103.382 620.243 -98.0816 623.379 -96.1876 628.573L-63.7247 717.594C-25.5318 822.371 81.4349 885.664 191.915 868.789Z" fill="url(#paint1_linear_5591_90995)"/>
<path d="M1426.5 12V888C1426.5 894.623 1421.12 900 1414.5 900H10.5C3.87718 900 -1.5 894.623 -1.5 888V12C-1.5 5.3772 3.87718 0 10.5 0H1414.5C1421.12 0 1426.5 5.3772 1426.5 12Z" fill="url(#paint2_linear_5591_90995)"/>
</g>
</g>
</g>
</g>
<g clip-path="url(#clip1_5591_90995)">
<mask id="mask3_5591_90995" style="mask-type:luminance" maskUnits="userSpaceOnUse" x="924" y="0" width="500" height="900">
<path d="M1424 0H924V900H1424V0Z" fill="white"/>
</mask>
<g mask="url(#mask3_5591_90995)">
<mask id="mask4_5591_90995" style="mask-type:alpha" maskUnits="userSpaceOnUse" x="932" y="118" width="1153" height="754">
<path d="M1224.17 869.15L942.546 826.174C935.266 825.063 930.824 817.576 933.343 810.663L1129.43 272.715C1167.81 167.414 1275.31 103.893 1386.34 120.852L1883.34 196.713C2030.93 219.286 2121.01 371.018 2069.99 511.045C2031.38 616.864 1923.4 680.789 1811.83 663.784L1526.44 620.201C1520.94 619.362 1515.61 622.513 1513.71 627.733L1481.08 717.199C1442.7 822.5 1335.2 886.11 1224.17 869.15Z" fill="url(#paint3_linear_5591_90995)"/>
</mask>
<g mask="url(#mask4_5591_90995)">
<mask id="mask5_5591_90995" style="mask-type:luminance" maskUnits="userSpaceOnUse" x="-4" y="0" width="1428" height="900">
<path d="M-4 0H1424V900H-4V0Z" fill="white"/>
</mask>
<g mask="url(#mask5_5591_90995)">
<path d="M1225.58 867.289L945.364 824.526C938.12 823.421 933.7 815.971 936.207 809.093L1131.32 273.821C1169.51 169.044 1276.47 105.839 1386.95 122.714L1881.47 198.197C2028.33 220.658 2117.96 371.635 2067.19 510.965C2028.77 616.258 1921.33 679.865 1810.32 662.944L1526.35 619.578C1520.88 618.743 1515.58 621.879 1513.68 627.073L1481.22 716.094C1443.03 820.871 1336.06 884.164 1225.58 867.289Z" fill="url(#paint4_linear_5591_90995)"/>
<path d="M1424 12V888C1424 894.623 1418.62 900 1412 900H7.99996C1.37718 900 -4 894.623 -4 888V12C-4 5.3772 1.37718 0 7.99996 0H1412C1418.62 0 1424 5.3772 1424 12Z" fill="url(#paint5_linear_5591_90995)"/>
</g>
</g>
</g>
</g>
<defs>
<linearGradient id="paint0_linear_5591_90995" x1="1427.56" y1="911.565" x2="-7.07685" y2="7.06489" gradientUnits="userSpaceOnUse">
<stop stop-color="#E5F0FF"/>
<stop offset="0.5" stop-color="#E9EBFF"/>
<stop offset="1" stop-color="#EBE5FF"/>
</linearGradient>
<linearGradient id="paint1_linear_5591_90995" x1="1419.99" y1="909.5" x2="-7.50433" y2="9.50371" gradientUnits="userSpaceOnUse">
<stop stop-color="#E5F0FF"/>
<stop offset="0.5" stop-color="#E9EBFF"/>
<stop offset="1" stop-color="#E5DEFF"/>
</linearGradient>
<linearGradient id="paint2_linear_5591_90995" x1="712.498" y1="0" x2="712.498" y2="900" gradientUnits="userSpaceOnUse">
<stop offset="0.35" stop-color="white" stop-opacity="0"/>
<stop offset="0.68" stop-color="white" stop-opacity="0.5"/>
<stop offset="1" stop-color="white"/>
</linearGradient>
<linearGradient id="paint3_linear_5591_90995" x1="1425.08" y1="910.065" x2="-9.55468" y2="5.5649" gradientUnits="userSpaceOnUse">
<stop stop-color="#E5F0FF"/>
<stop offset="0.5" stop-color="#E9EBFF"/>
<stop offset="1" stop-color="#EBE5FF"/>
</linearGradient>
<linearGradient id="paint4_linear_5591_90995" x1="1425.5" y1="908" x2="-1.99962" y2="8.00372" gradientUnits="userSpaceOnUse">
<stop stop-color="#DDD3FF"/>
<stop offset="0.5" stop-color="#E9EBFF"/>
<stop offset="1" stop-color="#EBE5FF"/>
</linearGradient>
<linearGradient id="paint5_linear_5591_90995" x1="709.998" y1="0" x2="709.998" y2="900" gradientUnits="userSpaceOnUse">
<stop offset="0.35" stop-color="white" stop-opacity="0"/>
<stop offset="0.68" stop-color="white" stop-opacity="0.5"/>
<stop offset="1" stop-color="white"/>
</linearGradient>
<clipPath id="clip0_5591_90995">
<rect width="500" height="900" fill="white"/>
</clipPath>
<clipPath id="clip1_5591_90995">
<rect width="500" height="900" fill="white" transform="translate(924)"/>
</clipPath>
</defs>
</svg>
