<svg width="138" height="165" viewBox="0 0 138 165" fill="none" xmlns="http://www.w3.org/2000/svg">
<path d="M137.455 -3.435L137.637 -6H135.094L134.912 -5.829C120.381 -4.632 108.756 6.312 107.485 19.992L107.303 20.163L107.122 19.992C105.85 6.312 94.2256 -4.632 79.6946 -5.829V-6H74.6088L74.4271 -5.829C59.8962 -4.632 48.2715 6.312 47 19.992L46.8184 20.163L46.6367 19.992C45.3653 6.312 33.7405 -4.632 19.2096 -5.829V-6H14.1238L13.9421 -5.829C-0.588821 -4.632 -12.2136 6.312 -13.485 19.992L-13.6667 20.163L-13.8483 19.992C-15.1198 6.312 -26.7445 -4.632 -41.2754 -5.829L-41.4571 -6H-44V-3.606L-43.8184 -3.435C-42.5469 10.245 -30.9222 21.189 -16.3912 22.386L-16.2096 22.557L-16.3912 22.728C-30.9222 23.925 -42.5469 34.869 -43.8184 48.549H-44V53.337L-43.8184 53.508C-42.5469 67.188 -30.9222 78.132 -16.3912 79.329L-16.2096 79.5L-16.3912 79.671C-30.9222 80.868 -42.5469 91.812 -43.8184 105.492L-44 105.663V110.451L-43.8184 110.622C-42.5469 124.302 -30.9222 135.246 -16.3912 136.443L-16.2096 136.614L-16.3912 136.785C-30.9222 137.982 -42.5469 148.926 -43.8184 162.606H-44V165H-41.4571L-41.2754 164.829C-26.7445 163.632 -15.1198 152.688 -13.8483 139.008L-13.6667 138.837L-13.485 139.008C-12.2136 152.688 -0.588821 163.632 13.9421 164.829L14.1238 165H19.2096L19.3912 164.829C33.9222 163.632 45.5469 152.688 46.8184 139.008L47 138.837L47.1816 139.008C48.4531 152.688 60.0779 163.632 74.6088 164.829L74.7904 165H79.8762L80.0579 164.829C94.5888 163.632 106.214 152.688 107.485 139.008L107.667 138.837L107.848 139.008C109.12 152.688 120.744 163.632 135.275 164.829L135.457 165H138V162.606L137.818 162.435C136.547 148.755 124.922 137.811 110.391 136.614L110.21 136.443L110.391 136.272C124.922 135.075 136.547 124.131 137.818 110.451L138 110.28V105.492L137.818 105.321C136.547 91.641 124.922 80.697 110.391 79.5H110.028L110.21 79.329C124.741 78.132 136.365 67.188 137.637 53.508L137.818 53.337V48.549L137.637 48.378C136.365 34.698 124.741 23.754 110.21 22.557L110.028 22.386L110.21 22.215C124.559 21.189 136.184 10.245 137.455 -3.435ZM49.5429 22.386C64.0739 21.189 75.6986 10.245 76.9701 -3.435L77.1517 -3.606L77.3333 -3.435C78.6048 10.245 90.2295 21.189 104.76 22.386L104.942 22.557L104.76 22.728C90.2295 23.925 78.6048 34.869 77.3333 48.549L77.1517 48.72L76.9701 48.549C75.6986 34.869 64.0739 23.925 49.5429 22.728V22.386ZM104.579 79.329V79.671C90.0479 80.868 78.4231 91.812 77.1517 105.492L76.9701 105.663L76.7884 105.492C75.517 91.812 63.8922 80.868 49.3613 79.671V79.5L49.5429 79.329C64.0739 78.132 75.6986 67.188 76.9701 53.508L77.1517 53.337L77.3333 53.508C78.6048 67.188 90.0479 78.132 104.579 79.329ZM46.8184 24.951C48.2715 38.802 59.8962 49.746 74.4271 50.943L74.6088 51.114L74.4271 51.285C59.8962 52.482 48.2715 63.426 47 77.106H46.8184L46.6367 76.935C45.3653 63.255 33.7405 52.311 19.2096 51.114L19.0279 50.943L19.2096 50.772C33.7405 49.575 45.3653 38.802 46.8184 24.951ZM44.2754 79.5C29.5629 80.868 17.9381 91.812 16.6667 105.492L16.485 105.663L16.3034 105.492C15.0319 91.812 3.40718 80.868 -11.1238 79.671V79.5L-10.9421 79.329C3.58882 78.132 15.2136 67.188 16.485 53.508L16.6667 53.337L16.8483 53.508C17.9381 67.188 29.5629 78.132 44.2754 79.5ZM-10.9421 22.386C3.58882 21.189 15.2136 10.245 16.485 -3.435L16.6667 -3.606L16.8483 -3.435C18.1198 10.245 29.7445 21.189 44.2754 22.386L44.4571 22.557L44.2754 22.728C29.7445 23.925 18.1198 34.869 16.8483 48.549L16.6667 48.72L16.485 48.549C15.2136 34.869 3.58882 23.925 -10.9421 22.728V22.386ZM-41.2754 51.114V50.943C-26.7445 49.746 -15.1198 38.802 -13.8483 25.122L-13.6667 24.951L-13.485 25.122C-12.2136 38.802 -0.588821 49.746 13.9421 50.943L14.1238 51.114L13.9421 51.285C-0.588821 52.482 -12.2136 63.426 -13.485 77.106L-13.6667 77.277L-13.8483 77.106C-15.1198 63.255 -26.7445 52.311 -41.2754 51.114ZM-13.6667 134.049C-15.1198 120.198 -26.7445 109.254 -41.2754 108.057L-41.4571 107.886L-41.2754 107.715C-26.7445 106.518 -15.1198 95.574 -13.8483 81.894L-13.6667 81.723L-13.485 81.894C-12.2136 95.574 -0.588821 106.518 13.9421 107.715L14.1238 107.886L13.9421 108.057C-0.770462 109.425 -12.2136 120.198 -13.6667 134.049ZM44.0938 136.614C29.5629 137.811 17.9381 148.755 16.6667 162.435L16.485 162.606L16.3034 162.435C15.0319 148.755 3.40718 137.811 -11.1238 136.614L-11.3054 136.443L-11.1238 136.272C3.40718 135.075 15.0319 124.131 16.3034 110.451L16.485 110.28L16.6667 110.451C17.9381 124.131 29.5629 135.075 44.0938 136.272V136.614ZM46.8184 134.049C45.3653 120.198 33.7405 109.254 19.2096 108.057L19.0279 107.886L19.2096 107.715C33.7405 106.518 45.3653 95.574 46.6367 81.894L46.8184 81.723L47 81.894C48.2715 95.574 59.8962 106.518 74.4271 107.715L74.6088 107.886L74.4271 108.057C59.8962 109.425 48.2715 120.198 46.8184 134.049ZM104.579 136.614C90.0479 137.811 78.4231 148.755 77.1517 162.435L76.9701 162.606L76.7884 162.435C75.517 148.755 63.8922 137.811 49.3613 136.614L49.1796 136.443L49.3613 136.272C63.8922 135.075 75.517 124.131 76.7884 110.451L76.9701 110.28L77.1517 110.451C78.4231 124.131 90.0479 135.075 104.579 136.272V136.614ZM134.912 107.886V108.228C120.381 109.425 108.756 120.369 107.485 134.049L107.303 134.22L107.122 134.049C105.85 120.369 94.2256 109.425 79.6946 108.228L79.513 108.057L79.6946 107.886C94.2256 106.689 105.85 95.745 107.122 82.065L107.303 81.894L107.485 82.065C108.756 95.745 120.381 106.689 134.912 107.886ZM134.912 50.943V51.114C120.381 52.311 108.756 63.255 107.485 76.935L107.303 77.106L107.122 76.935C105.85 63.255 94.2256 52.311 79.6946 51.114L79.513 50.943L79.6946 50.772C94.2256 49.575 105.85 38.631 107.122 24.951L107.303 24.78L107.485 24.951C108.756 38.802 120.381 49.575 134.912 50.943Z" fill="#EAEAEA"/>
</svg>
